<?xml version="1.0" encoding="UTF-8" standalone="no"?>
<svg
   id="Layer_1"
   data-name="Layer 1"
   viewBox="0 0 24 24"
   width="512"
   height="512"
   version="1.1"
   sodipodi:docname="bars-staggered.svg"
   inkscape:version="1.2.2 (732a01da63, 2022-12-09)"
   xmlns:inkscape="http://www.inkscape.org/namespaces/inkscape"
   xmlns:sodipodi="http://sodipodi.sourceforge.net/DTD/sodipodi-0.dtd"
   xmlns="http://www.w3.org/2000/svg"
   xmlns:svg="http://www.w3.org/2000/svg">
  <defs
     id="defs4352" />
  <sodipodi:namedview
     id="namedview4350"
     pagecolor="#505050"
     bordercolor="#ffffff"
     borderopacity="1"
     inkscape:showpageshadow="0"
     inkscape:pageopacity="0"
     inkscape:pagecheckerboard="1"
     inkscape:deskcolor="#505050"
     showgrid="false"
     inkscape:zoom="1.0253906"
     inkscape:cx="255.51238"
     inkscape:cy="256.48762"
     inkscape:window-width="1366"
     inkscape:window-height="705"
     inkscape:window-x="-8"
     inkscape:window-y="-8"
     inkscape:window-maximized="1"
     inkscape:current-layer="Layer_1" />
  <path
     d="M0,4c0-.55,.45-1,1-1H18c.55,0,1,.45,1,1s-.45,1-1,1H1c-.55,0-1-.45-1-1Zm18,15H1c-.55,0-1,.45-1,1s.45,1,1,1H18c.55,0,1-.45,1-1s-.45-1-1-1Zm5-8H6c-.55,0-1,.45-1,1s.45,1,1,1H23c.55,0,1-.45,1-1s-.45-1-1-1Z"
     id="path4347" />
  <path
     style="fill:#104f5e;stroke:#104f5e;stroke-width:0.975238"
     d="M 14.861535,104.99914 C -3.995929,98.160096 -3.5411324,71.192137 15.528018,65.478881 18.255011,64.661854 68.266936,64.365714 203.51922,64.365714 h 184.27579 l 5.28885,2.681905 c 3.46414,1.756626 6.30031,4.140865 8.22058,6.910676 2.60739,3.760906 2.93175,5.019421 2.93175,11.375038 0,6.355617 -0.32436,7.614133 -2.93175,11.375039 -1.92027,2.769811 -4.75644,5.154048 -8.22058,6.910678 l -5.28885,2.6819 -184.87655,-0.0742 C 63.229789,106.1707 17.264552,105.87064 14.861535,104.99914 Z"
     id="path5080"
     transform="scale(0.046875)" />
  <path
     style="fill:#104f5e;stroke:#104f5e;stroke-width:0.975238"
     d="m 118.91615,274.28571 c -3.46415,-1.75662 -6.30032,-4.14086 -8.22059,-6.91067 -2.60739,-3.76091 -2.93175,-5.01942 -2.93175,-11.37504 0,-6.35562 0.32436,-7.61413 2.93175,-11.37504 1.92027,-2.76981 4.75644,-5.15405 8.22059,-6.91067 l 5.28884,-2.68191 h 184.27579 c 135.25228,0 185.26421,0.29614 187.99121,1.11317 19.35403,5.79861 19.35403,33.91029 0,39.7089 -2.727,0.81703 -52.73893,1.11317 -187.99121,1.11317 H 124.20499 Z"
     id="path5082"
     transform="scale(0.046875)" />
  <path
     style="fill:#104f5e;stroke:#104f5e;stroke-width:0.975238"
     d="m 14.861535,446.33247 c -18.857464,-6.83904 -18.4026674,-33.807 0.666483,-39.52026 2.726993,-0.81702 52.738918,-1.11316 187.991202,-1.11316 h 184.27579 l 5.28885,2.6819 c 3.46414,1.75663 6.30031,4.14087 8.22058,6.91068 2.60739,3.7609 2.93175,5.01942 2.93175,11.37504 0,6.35561 -0.32436,7.61413 -2.93175,11.37504 -1.92027,2.76981 -4.75644,5.15404 -8.22058,6.91067 l -5.28885,2.68191 -184.87655,-0.0742 C 63.229789,447.50403 17.264552,447.20397 14.861535,446.33247 Z"
     id="path5084"
     transform="scale(0.046875)" />
</svg>
