<?xml version="1.0" encoding="UTF-8" standalone="no"?>
<svg
   id="Layer_1"
   data-name="Layer 1"
   viewBox="0 0 24 24"
   width="512"
   height="512"
   version="1.1"
   xmlns="http://www.w3.org/2000/svg"
   xmlns:svg="http://www.w3.org/2000/svg">
  <defs
     id="defs14" />
  <path
     d="m23.637,10.55l-4.252-7.962c-.522-.979-1.536-1.587-2.646-1.587H7.282c-1.108,0-2.122.606-2.644,1.582L.366,10.549c-.489.911-.489,2,0,2.911l4.271,7.958c.523.975,1.536,1.581,2.644,1.581h9.457c1.11,0,2.124-.608,2.646-1.587l4.252-7.962c.485-.908.485-1.993,0-2.901Zm-7.395,4.279l-1.414,1.414-2.828-2.828-2.828,2.828-1.414-1.414,2.828-2.829-2.828-2.829,1.414-1.414,2.828,2.828,2.828-2.828,1.414,1.414-2.828,2.829,2.828,2.829Z"
     id="path9" />
  <path
     style="fill:#104f5e;stroke-width:0.975238;fill-opacity:1;stroke:#104f5e;stroke-opacity:1"
     d="M 145.99798,489.4405 C 129.99474,487.10475 114.07753,477.46423 104.35402,464.21816 98.797734,456.64898 5.4870167,281.91458 3.3179193,275.01714 -0.94402286,261.46474 0.06523017,243.58887 5.8231907,230.64381 9.9022604,221.47324 101.13757,52.18477 104.40662,47.720798 c 10.16484,-13.880352 25.77076,-22.957546 43.47094,-25.284885 5.63553,-0.740998 40.75006,-0.976358 113.48625,-0.760655 97.25223,0.288406 105.77425,0.444335 111.17714,2.034237 14.27786,4.201517 26.66957,12.368331 34.34108,22.632655 4.43412,5.932749 96.986,178.04076 100.15796,186.25214 5.58872,14.46776 5.74802,31.51568 0.4283,45.83619 -2.64027,7.10754 -96.39704,181.6232 -100.58626,187.22785 -7.67155,10.26359 -20.06076,18.42884 -34.34108,22.63293 -5.42206,1.59624 -13.72311,1.73448 -113.12762,1.88396 -61.05335,0.0918 -109.92141,-0.22476 -113.41535,-0.73472 z m 139.99921,-172.2356 29.9972,29.98549 15.58651,-15.60939 15.58653,-15.6094 -29.98,-29.9917 -29.98,-29.9917 29.74485,-29.73286 c 16.35968,-16.35308 29.73371,-29.955 29.72006,-30.22649 -0.0136,-0.27148 -6.80147,-7.51533 -15.08407,-16.09742 L 316.529,164.32762 286.2645,194.5541 256,224.78058 226.00281,194.7951 196.00561,164.80961 180.4191,180.419 l -15.58653,15.6094 29.978,29.98969 29.97799,29.9897 -29.97995,29.97994 -29.97995,29.97995 15.58848,15.61136 15.58847,15.61135 29.9972,-29.98549 L 256,287.21942 Z"
     id="path935"
     transform="scale(0.046875)" />
</svg>
